<mxfile host="app.diagrams.net" modified="2021-04-05T15:10:35.054Z" agent="5.0 (Windows NT 10.0; Win64; x64) AppleWebKit/537.36 (KHTML, like Gecko) Chrome/89.0.4389.114 Safari/537.36 Edg/89.0.774.68" etag="ttDOE934EnrZwLOSh_cB" version="14.5.3" type="github">
  <diagram id="i5_RzrkPXV5UA1-wyjiy" name="Page-1">
    <mxGraphModel dx="1447" dy="598" grid="1" gridSize="10" guides="1" tooltips="1" connect="1" arrows="1" fold="1" page="1" pageScale="1" pageWidth="850" pageHeight="1100" math="0" shadow="0">
      <root>
        <mxCell id="0" />
        <mxCell id="1" parent="0" />
        <mxCell id="net1o3NAVwAa54WlGhCC-1" value="Chuyên viên" style="shape=umlActor;verticalLabelPosition=bottom;verticalAlign=top;html=1;" vertex="1" parent="1">
          <mxGeometry x="160" y="250" width="30" height="60" as="geometry" />
        </mxCell>
        <mxCell id="net1o3NAVwAa54WlGhCC-2" value="Sinh viên" style="shape=umlActor;verticalLabelPosition=bottom;verticalAlign=top;html=1;" vertex="1" parent="1">
          <mxGeometry x="160" y="350" width="30" height="60" as="geometry" />
        </mxCell>
        <mxCell id="net1o3NAVwAa54WlGhCC-3" value="Hiệu trưởng" style="shape=umlActor;verticalLabelPosition=bottom;verticalAlign=top;html=1;" vertex="1" parent="1">
          <mxGeometry x="160" y="140" width="30" height="60" as="geometry" />
        </mxCell>
        <mxCell id="net1o3NAVwAa54WlGhCC-5" value="Tra cứu" style="ellipse;whiteSpace=wrap;html=1;" vertex="1" parent="1">
          <mxGeometry x="300" y="255" width="110" height="50" as="geometry" />
        </mxCell>
        <mxCell id="net1o3NAVwAa54WlGhCC-6" value="Tra cứu bằng từ khóa" style="ellipse;whiteSpace=wrap;html=1;" vertex="1" parent="1">
          <mxGeometry x="490" y="400" width="110" height="50" as="geometry" />
        </mxCell>
        <mxCell id="net1o3NAVwAa54WlGhCC-7" value="Tra cứu theo năm học" style="ellipse;whiteSpace=wrap;html=1;" vertex="1" parent="1">
          <mxGeometry x="490" y="220" width="110" height="50" as="geometry" />
        </mxCell>
        <mxCell id="net1o3NAVwAa54WlGhCC-8" value="Tra cứu theo Khóa học" style="ellipse;whiteSpace=wrap;html=1;" vertex="1" parent="1">
          <mxGeometry x="490" y="130" width="110" height="50" as="geometry" />
        </mxCell>
        <mxCell id="net1o3NAVwAa54WlGhCC-9" value="Tra cứu theo kì học" style="ellipse;whiteSpace=wrap;html=1;" vertex="1" parent="1">
          <mxGeometry x="490" y="305" width="110" height="50" as="geometry" />
        </mxCell>
        <mxCell id="net1o3NAVwAa54WlGhCC-10" value="Extends" style="endArrow=block;endSize=16;endFill=0;html=1;entryX=1;entryY=0.5;entryDx=0;entryDy=0;exitX=0;exitY=0.5;exitDx=0;exitDy=0;" edge="1" parent="1" source="net1o3NAVwAa54WlGhCC-8" target="net1o3NAVwAa54WlGhCC-5">
          <mxGeometry width="160" relative="1" as="geometry">
            <mxPoint x="340" y="270" as="sourcePoint" />
            <mxPoint x="500" y="270" as="targetPoint" />
          </mxGeometry>
        </mxCell>
        <mxCell id="net1o3NAVwAa54WlGhCC-11" value="Extends" style="endArrow=block;endSize=16;endFill=0;html=1;exitX=0;exitY=0.5;exitDx=0;exitDy=0;" edge="1" parent="1" source="net1o3NAVwAa54WlGhCC-7">
          <mxGeometry width="160" relative="1" as="geometry">
            <mxPoint x="500" y="165" as="sourcePoint" />
            <mxPoint x="410" y="280" as="targetPoint" />
          </mxGeometry>
        </mxCell>
        <mxCell id="net1o3NAVwAa54WlGhCC-12" value="Extends" style="endArrow=block;endSize=16;endFill=0;html=1;exitX=0;exitY=0.5;exitDx=0;exitDy=0;entryX=1;entryY=0.5;entryDx=0;entryDy=0;" edge="1" parent="1" source="net1o3NAVwAa54WlGhCC-9" target="net1o3NAVwAa54WlGhCC-5">
          <mxGeometry width="160" relative="1" as="geometry">
            <mxPoint x="500" y="255" as="sourcePoint" />
            <mxPoint x="420" y="290" as="targetPoint" />
          </mxGeometry>
        </mxCell>
        <mxCell id="net1o3NAVwAa54WlGhCC-13" value="Extends" style="endArrow=block;endSize=16;endFill=0;html=1;exitX=0;exitY=0.5;exitDx=0;exitDy=0;" edge="1" parent="1" source="net1o3NAVwAa54WlGhCC-6">
          <mxGeometry width="160" relative="1" as="geometry">
            <mxPoint x="510" y="265" as="sourcePoint" />
            <mxPoint x="412" y="280" as="targetPoint" />
          </mxGeometry>
        </mxCell>
        <mxCell id="net1o3NAVwAa54WlGhCC-14" value="" style="line;strokeWidth=1;fillColor=none;align=left;verticalAlign=middle;spacingTop=-1;spacingLeft=3;spacingRight=3;rotatable=0;labelPosition=right;points=[];portConstraint=eastwest;" vertex="1" parent="1">
          <mxGeometry x="180" y="240" width="120" height="80" as="geometry" />
        </mxCell>
        <mxCell id="net1o3NAVwAa54WlGhCC-16" value="" style="line;strokeWidth=1;fillColor=none;align=left;verticalAlign=middle;spacingTop=-1;spacingLeft=3;spacingRight=3;rotatable=0;labelPosition=right;points=[];portConstraint=eastwest;" vertex="1" parent="1">
          <mxGeometry x="180" y="350" width="180" height="80" as="geometry" />
        </mxCell>
        <mxCell id="net1o3NAVwAa54WlGhCC-17" value="" style="line;strokeWidth=1;fillColor=none;align=left;verticalAlign=middle;spacingTop=-1;spacingLeft=3;spacingRight=3;rotatable=0;labelPosition=right;points=[];portConstraint=eastwest;" vertex="1" parent="1">
          <mxGeometry x="180" y="140" width="180" height="80" as="geometry" />
        </mxCell>
        <mxCell id="net1o3NAVwAa54WlGhCC-19" value="" style="endArrow=none;html=1;entryX=1.002;entryY=0.467;entryDx=0;entryDy=0;entryPerimeter=0;" edge="1" parent="1">
          <mxGeometry width="50" height="50" relative="1" as="geometry">
            <mxPoint x="360" y="256" as="sourcePoint" />
            <mxPoint x="360.3600000000001" y="178.36" as="targetPoint" />
          </mxGeometry>
        </mxCell>
        <mxCell id="net1o3NAVwAa54WlGhCC-20" value="" style="endArrow=none;html=1;exitX=1.002;exitY=0.543;exitDx=0;exitDy=0;exitPerimeter=0;" edge="1" parent="1">
          <mxGeometry width="50" height="50" relative="1" as="geometry">
            <mxPoint x="360.3600000000001" y="390.44000000000005" as="sourcePoint" />
            <mxPoint x="360" y="305" as="targetPoint" />
          </mxGeometry>
        </mxCell>
        <mxCell id="net1o3NAVwAa54WlGhCC-24" value="&lt;font style=&quot;font-size: 18px&quot;&gt;&lt;b&gt;Biểu đồ Usecase Tra cứu&lt;/b&gt;&lt;/font&gt;" style="text;html=1;strokeColor=none;fillColor=none;align=center;verticalAlign=middle;whiteSpace=wrap;rounded=0;" vertex="1" parent="1">
          <mxGeometry x="170" y="470" width="450" height="20" as="geometry" />
        </mxCell>
      </root>
    </mxGraphModel>
  </diagram>
</mxfile>
